<?xml version="1.0" encoding="UTF-8"?>
<svg xmlns="http://www.w3.org/2000/svg" xmlns:xlink="http://www.w3.org/1999/xlink" width="145px" height="39px" viewBox="0 0 144 39" version="1.1">
<g id="surface1">
<path style=" stroke:none;fill-rule:nonzero;fill:rgb(100%,100%,100%);fill-opacity:1;" d="M 19.601562 39 C 30.429688 39 39.207031 30.269531 39.207031 19.5 C 39.207031 8.730469 30.429688 0 19.601562 0 C 8.777344 0 0 8.730469 0 19.5 C 0 30.269531 8.777344 39 19.601562 39 Z M 19.601562 39 "/>
<path style=" stroke:none;fill-rule:nonzero;fill:rgb(0%,0%,0%);fill-opacity:1;" d="M 21.691406 21.300781 L 21.691406 21.296875 C 21.554688 21.304688 20.855469 21.347656 19.296875 21.347656 C 18.054688 21.347656 17.179688 21.3125 16.871094 21.296875 L 16.871094 21.300781 C 12.085938 21.089844 8.515625 20.261719 8.515625 19.269531 C 8.515625 18.277344 12.089844 17.445312 16.871094 17.238281 L 16.871094 20.476562 C 17.183594 20.496094 18.082031 20.550781 19.320312 20.550781 C 20.808594 20.550781 21.550781 20.488281 21.691406 20.476562 L 21.691406 17.238281 C 26.46875 17.453125 30.03125 18.28125 30.03125 19.269531 C 30.03125 20.261719 26.464844 21.089844 21.691406 21.300781 Z M 21.691406 16.902344 L 21.691406 14.007812 L 28.355469 14.007812 L 28.355469 9.589844 L 10.210938 9.589844 L 10.210938 14.007812 L 16.875 14.007812 L 16.875 16.902344 C 11.457031 17.152344 7.386719 18.21875 7.386719 19.496094 C 7.386719 20.777344 11.460938 21.84375 16.875 22.09375 L 16.875 31.378906 L 21.695312 31.378906 L 21.695312 22.09375 C 27.101562 21.84375 31.167969 20.777344 31.167969 19.5 C 31.167969 18.222656 27.101562 17.15625 21.695312 16.90625 "/>
<path style=" stroke:none;fill-rule:nonzero;fill:rgb(100%,100%,100%);fill-opacity:1;" d="M 55.855469 10.796875 L 55.855469 15.480469 L 60.433594 15.480469 L 60.433594 18.996094 L 55.824219 18.996094 L 55.824219 26.121094 C 55.824219 27.695312 56.695312 28.464844 57.976562 28.464844 C 58.617188 28.464844 59.355469 28.261719 59.960938 27.960938 L 61.105469 31.441406 C 59.929688 31.910156 58.953125 32.109375 57.707031 32.144531 C 54.109375 32.277344 51.753906 30.238281 51.753906 26.121094 L 51.753906 18.996094 L 48.660156 18.996094 L 48.660156 15.480469 L 51.753906 15.480469 L 51.753906 11.234375 Z M 134.75 15.261719 L 135.050781 17.167969 C 136.332031 15.125 138.046875 14.824219 139.730469 14.824219 C 141.445312 14.824219 143.09375 15.492188 144 16.394531 L 142.148438 19.941406 C 141.308594 19.238281 140.535156 18.871094 139.191406 18.871094 C 137.039062 18.871094 135.050781 20.007812 135.050781 23.050781 L 135.050781 31.75 L 130.949219 31.75 L 130.949219 15.253906 Z M 124.691406 21.585938 C 124.425781 19.445312 122.742188 18.371094 120.386719 18.371094 C 118.167969 18.371094 116.351562 19.445312 115.746094 21.585938 Z M 115.679688 24.964844 C 115.945312 27.003906 117.730469 28.480469 120.625 28.480469 C 122.136719 28.480469 124.121094 27.910156 125.066406 26.941406 L 127.6875 29.515625 C 125.9375 31.324219 123.078125 32.195312 120.554688 32.195312 C 114.839844 32.195312 111.4375 28.679688 111.4375 23.394531 C 111.4375 18.375 114.871094 14.761719 120.253906 14.761719 C 125.800781 14.761719 129.269531 18.175781 128.628906 24.964844 Z M 97.582031 8.332031 L 97.582031 17.5 C 99.0625 15.59375 100.878906 15.023438 102.765625 15.023438 C 107.472656 15.023438 109.558594 18.203125 109.558594 23.054688 L 109.558594 31.753906 L 105.457031 31.753906 L 105.457031 23.089844 C 105.457031 20.078125 103.875 18.808594 101.6875 18.808594 C 99.261719 18.808594 97.582031 20.847656 97.582031 23.324219 L 97.582031 31.757812 L 93.480469 31.757812 L 93.480469 8.335938 Z M 86.683594 10.609375 L 86.683594 15.292969 L 91.261719 15.292969 L 91.261719 18.808594 L 86.652344 18.808594 L 86.652344 25.933594 C 86.652344 27.507812 87.527344 28.273438 88.804688 28.273438 C 89.445312 28.273438 90.1875 28.074219 90.789062 27.773438 L 91.933594 31.253906 C 90.757812 31.71875 89.78125 31.921875 88.539062 31.957031 C 84.9375 32.089844 82.585938 30.046875 82.585938 25.933594 L 82.585938 18.808594 L 79.488281 18.808594 L 79.488281 15.292969 L 82.585938 15.292969 L 82.585938 11.042969 Z M 75.347656 21.585938 C 75.082031 19.445312 73.398438 18.371094 71.042969 18.371094 C 68.824219 18.371094 67.007812 19.445312 66.402344 21.585938 Z M 66.335938 24.964844 C 66.601562 27.003906 68.386719 28.480469 71.28125 28.480469 C 72.792969 28.480469 74.777344 27.910156 75.71875 26.941406 L 78.34375 29.515625 C 76.59375 31.324219 73.734375 32.195312 71.210938 32.195312 C 65.488281 32.195312 62.09375 28.679688 62.09375 23.394531 C 62.09375 18.375 65.523438 14.761719 70.90625 14.761719 C 76.453125 14.761719 79.917969 18.175781 79.28125 24.964844 Z M 66.335938 24.964844 "/>
</g>
</svg>
