<svg width="171" height="46" viewBox="0 0 171 46" fill="none" xmlns="http://www.w3.org/2000/svg">
<path d="M23.2786 46C36.1351 46 46.5573 35.7025 46.5573 23C46.5573 10.2974 36.1351 0 23.2786 0C10.4222 0 0 10.2974 0 23C0 35.7025 10.4222 46 23.2786 46Z" fill="white"/>
<path d="M25.7579 25.1225V25.1188C25.597 25.1299 24.7662 25.178 22.9173 25.178C21.439 25.178 20.4023 25.1373 20.0356 25.1188V25.1225C14.3506 24.8747 10.1103 23.8985 10.1103 22.7264C10.1103 21.5579 14.3544 20.578 20.0356 20.3302V24.15C20.4061 24.1759 21.4727 24.2387 22.9435 24.2387C24.71 24.2387 25.5933 24.1648 25.7579 24.15V20.3339C31.4316 20.5854 35.6607 21.5616 35.6607 22.7301C35.6607 23.8985 31.4279 24.8747 25.7579 25.1262V25.1225ZM25.7579 19.9383V16.5215H33.6734V11.3114H12.1238V16.5215H20.0393V19.9383C13.6059 20.2304 8.77051 21.4876 8.77051 22.9963C8.77051 24.505 13.6096 25.7622 20.0393 26.058V37.0108H25.7617V26.058C32.1839 25.7659 37.0118 24.5087 37.0118 23C37.0118 21.495 32.1839 20.2341 25.7617 19.9419" fill="black"/>
<path d="M66.3284 12.7351V18.2595H71.7626V22.4047H66.291V30.8097C66.291 32.666 67.3277 33.572 68.8471 33.572C69.6069 33.572 70.4864 33.3353 71.2049 32.9803L72.5635 37.0848C71.1675 37.6358 70.0073 37.8725 68.529 37.9131C64.255 38.0721 61.4594 35.6649 61.4594 30.8097V22.4047H57.7842V18.2595H61.4594V13.249L66.3284 12.7351ZM160.015 18.0007L160.375 20.2489C161.894 17.8417 163.93 17.4867 165.929 17.4867C167.965 17.4867 169.922 18.2743 171 19.3393L168.803 23.5214C167.804 22.6931 166.887 22.2568 165.289 22.2568C162.733 22.2568 160.375 23.5991 160.375 27.1896V37.4509H155.502V17.9933L160.015 18.0007ZM148.073 25.4591C147.755 22.9335 145.756 21.6689 142.961 21.6689C140.326 21.6689 138.167 22.9335 137.448 25.4591H148.073ZM137.369 29.4453C137.687 31.8525 139.806 33.5904 143.241 33.5904C145.038 33.5904 147.396 32.9175 148.515 31.7748L151.628 34.8144C149.551 36.9443 146.157 37.9723 143.159 37.9723C136.37 37.9723 132.332 33.8271 132.332 27.5927C132.332 21.6726 136.408 17.409 142.8 17.409C149.39 17.409 153.507 21.4359 152.747 29.4453H137.369ZM115.88 9.82861V20.6409C117.639 18.3926 119.794 17.7196 122.032 17.7196C127.624 17.7196 130.101 21.4692 130.101 27.1933V37.4546H125.229V27.234C125.229 23.6804 123.35 22.1828 120.752 22.1828C117.874 22.1828 115.88 24.5901 115.88 27.5113V37.4583H111.007V9.83231L115.88 9.82861ZM102.938 12.5132V18.0377H108.372V22.1828H102.901V30.5879C102.901 32.4441 103.941 33.3501 105.457 33.3501C106.216 33.3501 107.096 33.1134 107.814 32.7584L109.173 36.863C107.777 37.4139 106.617 37.6506 105.139 37.6913C100.865 37.8503 98.0689 35.4393 98.0689 30.5879V22.1828H94.3937V18.0377H98.0689V13.0272L102.938 12.5132ZM89.476 25.4591C89.1579 22.9335 87.1594 21.6689 84.3637 21.6689C81.729 21.6689 79.5695 22.9335 78.851 25.4591H89.476ZM78.7724 29.4453C79.0905 31.8525 81.2088 33.5904 84.6444 33.5904C86.4408 33.5904 88.7986 32.9175 89.9176 31.7748L93.0314 34.8144C90.9543 36.9443 87.5598 37.9723 84.5621 37.9723C77.7694 37.9723 73.7349 33.8271 73.7349 27.5927C73.7349 21.6726 77.8105 17.409 84.199 17.409C90.7897 17.409 94.9027 21.4359 94.1467 29.4453H78.7724Z" fill="white"/>
</svg>
